#Comment line ignore any data following # character 
#Hierarchical Translation and Rotation (.htr) file 
[Header]	
#Header keywords are followed by a single value 
FileType HTR		#Single word string
DataType HTRS		#Translation followed by rotation and scale data
FileVersion 1		#integer
NumSegments 84		#integer
NumFrames 2		#integer
DataFrameRate 30		#integer, data frame rate in this file
EulerRotationOrder ZYX
CalibrationUnits mm
RotationUnits Degrees
GlobalAxisofGravity Y
BoneLengthAxis Y
ScaleFactor 1.00
[SegmentNames&Hierarchy]
#CHILD	PARENT
MASTER GLOBAL
root MASTER
chest root
L_mid_tent01 root
R_mid_tent01 root
spine01 root
Bip01_Neck chest
L_humerus chest
R_humerus chest
weapon_bone chest
Bip01_Head Bip01_Neck
eye_left_bone Bip01_Head
eye_right_bone Bip01_Head
L_forearm L_humerus
L_front_hand L_forearm
L_weapon_bone L_forearm
L_front_hand01_01 L_front_hand
L_front_hand02_01 L_front_hand
L_front_hand03_01 L_front_hand
L_front_hand01_02 L_front_hand01_01
L_front_hand02_02 L_front_hand02_01
L_front_hand03_02 L_front_hand03_01
R_forearm R_humerus
R_front_hand R_forearm
R_weapon_bone R_forearm
R_front_hand01_01 R_front_hand
R_front_hand02_01 R_front_hand
R_front_hand03_01 R_front_hand
R_front_hand01_02 R_front_hand01_01
R_front_hand02_02 R_front_hand02_01
R_front_hand03_02 R_front_hand03_01
null_rope01_connect L_mid_tent01
Rope1_Seg01 null_rope01_connect
Rope1_Seg02 Rope1_Seg01
Rope1_Seg03 Rope1_Seg02
Rope1_Seg04 Rope1_Seg03
Rope1_Seg05 Rope1_Seg04
Rope1_Seg06 Rope1_Seg05
Rope1_Seg07 Rope1_Seg06
Rope1_Seg09 Rope1_Seg07
L_mid_hand01 Rope1_Seg09
L_mid_hand02 Rope1_Seg09
L_mid_hand03 Rope1_Seg09
null_rope02_connect R_mid_tent01
Rope2_Seg01 null_rope02_connect
Rope2_Seg02 Rope2_Seg01
Rope2_Seg03 Rope2_Seg02
Rope2_Seg04 Rope2_Seg03
Rope2_Seg05 Rope2_Seg04
Rope2_Seg06 Rope2_Seg05
Rope2_Seg07 Rope2_Seg06
Rope2_Seg09 Rope2_Seg07
R_mid_hand01 Rope2_Seg09
R_mid_hand02 Rope2_Seg09
R_mid_hand03 Rope2_Seg09
spine02 spine01
spine03 spine02
pelvis spine03
null_rope03_connect pelvis
null_rope04_connect pelvis
Rope3_Seg01 null_rope03_connect
Rope3_Seg02 Rope3_Seg01
Rope3_Seg03 Rope3_Seg02
Rope3_Seg04 Rope3_Seg03
Rope3_Seg05 Rope3_Seg04
Rope3_Seg06 Rope3_Seg05
Rope3_Seg07 Rope3_Seg06
Rope3_Seg08 Rope3_Seg07
Rope3_Seg09 Rope3_Seg08
R_rear_hand01 Rope3_Seg09
R_rear_hand02 Rope3_Seg09
R_rear_hand03 Rope3_Seg09
Rope4_Seg01 null_rope04_connect
Rope4_Seg02 Rope4_Seg01
Rope4_Seg03 Rope4_Seg02
Rope4_Seg04 Rope4_Seg03
Rope4_Seg05 Rope4_Seg04
Rope4_Seg06 Rope4_Seg05
Rope4_Seg07 Rope4_Seg06
Rope4_Seg08 Rope4_Seg07
Rope4_Seg09 Rope4_Seg08
L_rear_hand01 Rope4_Seg09
L_rear_hand02 Rope4_Seg09
L_rear_hand03 Rope4_Seg09
[BasePosition]
#SegmentName Tx, Ty, Tz, Rx, Ry, Rz, BoneLength
MASTER 0.000000 0.000000 0.000000 -90.000000 0.000000 0.000000 10.000000 
root 0.000000 0.000000 0.000000 0.000000 0.000000 0.000000 10.000000 
chest 0.000000 0.000000 0.000000 0.000000 0.000000 0.000000 10.000000 
L_mid_tent01 0.000000 0.000000 0.000000 0.000000 0.000000 0.000000 10.000000 
R_mid_tent01 0.000000 0.000000 0.000000 0.000000 0.000000 0.000000 10.000000 
spine01 0.000000 0.000000 0.000000 0.000000 0.000000 0.000000 10.000000 
Bip01_Neck 0.000000 0.000000 0.000000 0.000000 0.000000 0.000000 10.000000 
L_humerus 0.000000 0.000000 0.000000 0.000000 0.000000 0.000000 10.000000 
R_humerus 0.000000 0.000000 0.000000 0.000000 0.000000 0.000000 10.000000 
weapon_bone 0.000000 0.000000 0.000000 0.000000 0.000000 0.000000 10.000000 
Bip01_Head 0.000000 0.000000 0.000000 0.000000 0.000000 0.000000 10.000000 
eye_left_bone 0.000000 0.000000 0.000000 0.000000 0.000000 0.000000 10.000000 
eye_right_bone 0.000000 0.000000 0.000000 0.000000 0.000000 0.000000 10.000000 
L_forearm 0.000000 0.000000 0.000000 0.000000 0.000000 0.000000 10.000000 
L_front_hand 0.000000 0.000000 0.000000 0.000000 0.000000 0.000000 10.000000 
L_weapon_bone 0.000000 0.000000 0.000000 0.000000 0.000000 0.000000 10.000000 
L_front_hand01_01 0.000000 0.000000 0.000000 0.000000 0.000000 0.000000 10.000000 
L_front_hand02_01 0.000000 0.000000 0.000000 0.000000 0.000000 0.000000 10.000000 
L_front_hand03_01 0.000000 0.000000 0.000000 0.000000 0.000000 0.000000 10.000000 
L_front_hand01_02 0.000000 0.000000 0.000000 0.000000 0.000000 0.000000 10.000000 
L_front_hand02_02 0.000000 0.000000 0.000000 0.000000 0.000000 0.000000 10.000000 
L_front_hand03_02 0.000000 0.000000 0.000000 0.000000 0.000000 0.000000 10.000000 
R_forearm 0.000000 0.000000 0.000000 0.000000 0.000000 0.000000 10.000000 
R_front_hand 0.000000 0.000000 0.000000 0.000000 0.000000 0.000000 10.000000 
R_weapon_bone 0.000000 0.000000 0.000000 0.000000 0.000000 0.000000 10.000000 
R_front_hand01_01 0.000000 0.000000 0.000000 0.000000 0.000000 0.000000 10.000000 
R_front_hand02_01 0.000000 0.000000 0.000000 0.000000 0.000000 0.000000 10.000000 
R_front_hand03_01 0.000000 0.000000 0.000000 0.000000 0.000000 0.000000 10.000000 
R_front_hand01_02 0.000000 0.000000 0.000000 0.000000 0.000000 0.000000 10.000000 
R_front_hand02_02 0.000000 0.000000 0.000000 0.000000 0.000000 0.000000 10.000000 
R_front_hand03_02 0.000000 0.000000 0.000000 0.000000 0.000000 0.000000 10.000000 
null_rope01_connect 0.000000 0.000000 0.000000 0.000000 0.000000 0.000000 10.000000 
Rope1_Seg01 0.000000 0.000000 0.000000 0.000000 0.000000 0.000000 10.000000 
Rope1_Seg02 0.000000 0.000000 0.000000 0.000000 0.000000 0.000000 10.000000 
Rope1_Seg03 0.000000 0.000000 0.000000 0.000000 0.000000 0.000000 10.000000 
Rope1_Seg04 0.000000 0.000000 0.000000 0.000000 0.000000 0.000000 10.000000 
Rope1_Seg05 0.000000 0.000000 0.000000 0.000000 0.000000 0.000000 10.000000 
Rope1_Seg06 0.000000 0.000000 0.000000 0.000000 0.000000 0.000000 10.000000 
Rope1_Seg07 0.000000 0.000000 0.000000 0.000000 0.000000 0.000000 10.000000 
Rope1_Seg09 0.000000 0.000000 0.000000 0.000000 0.000000 0.000000 10.000000 
L_mid_hand01 0.000000 0.000000 0.000000 0.000000 0.000000 0.000000 10.000000 
L_mid_hand02 0.000000 0.000000 0.000000 0.000000 0.000000 0.000000 10.000000 
L_mid_hand03 0.000000 0.000000 0.000000 0.000000 0.000000 0.000000 10.000000 
null_rope02_connect 0.000000 0.000000 0.000000 0.000000 0.000000 0.000000 10.000000 
Rope2_Seg01 0.000000 0.000000 0.000000 0.000000 0.000000 0.000000 10.000000 
Rope2_Seg02 0.000000 0.000000 0.000000 0.000000 0.000000 0.000000 10.000000 
Rope2_Seg03 0.000000 0.000000 0.000000 0.000000 0.000000 0.000000 10.000000 
Rope2_Seg04 0.000000 0.000000 0.000000 0.000000 0.000000 0.000000 10.000000 
Rope2_Seg05 0.000000 0.000000 0.000000 0.000000 0.000000 0.000000 10.000000 
Rope2_Seg06 0.000000 0.000000 0.000000 0.000000 0.000000 0.000000 10.000000 
Rope2_Seg07 0.000000 0.000000 0.000000 0.000000 0.000000 0.000000 10.000000 
Rope2_Seg09 0.000000 0.000000 0.000000 0.000000 0.000000 0.000000 10.000000 
R_mid_hand01 0.000000 0.000000 0.000000 0.000000 0.000000 0.000000 10.000000 
R_mid_hand02 0.000000 0.000000 0.000000 0.000000 0.000000 0.000000 10.000000 
R_mid_hand03 0.000000 0.000000 0.000000 0.000000 0.000000 0.000000 10.000000 
spine02 0.000000 0.000000 0.000000 0.000000 0.000000 0.000000 10.000000 
spine03 0.000000 0.000000 0.000000 0.000000 0.000000 0.000000 10.000000 
pelvis 0.000000 0.000000 0.000000 0.000000 0.000000 0.000000 10.000000 
null_rope03_connect 0.000000 0.000000 0.000000 0.000000 0.000000 0.000000 10.000000 
null_rope04_connect 0.000000 0.000000 0.000000 0.000000 0.000000 0.000000 10.000000 
Rope3_Seg01 0.000000 0.000000 0.000000 0.000000 0.000000 0.000000 10.000000 
Rope3_Seg02 0.000000 0.000000 0.000000 0.000000 0.000000 0.000000 10.000000 
Rope3_Seg03 0.000000 0.000000 0.000000 0.000000 0.000000 0.000000 10.000000 
Rope3_Seg04 0.000000 0.000000 0.000000 0.000000 0.000000 0.000000 10.000000 
Rope3_Seg05 0.000000 0.000000 0.000000 0.000000 0.000000 0.000000 10.000000 
Rope3_Seg06 0.000000 0.000000 0.000000 0.000000 0.000000 0.000000 10.000000 
Rope3_Seg07 0.000000 0.000000 0.000000 0.000000 0.000000 0.000000 10.000000 
Rope3_Seg08 0.000000 0.000000 0.000000 0.000000 0.000000 0.000000 10.000000 
Rope3_Seg09 0.000000 0.000000 0.000000 0.000000 0.000000 0.000000 10.000000 
R_rear_hand01 0.000000 0.000000 0.000000 0.000000 0.000000 0.000000 10.000000 
R_rear_hand02 0.000000 0.000000 0.000000 0.000000 0.000000 0.000000 10.000000 
R_rear_hand03 0.000000 0.000000 0.000000 0.000000 0.000000 0.000000 10.000000 
Rope4_Seg01 0.000000 0.000000 0.000000 0.000000 0.000000 0.000000 10.000000 
Rope4_Seg02 0.000000 0.000000 0.000000 0.000000 0.000000 0.000000 10.000000 
Rope4_Seg03 0.000000 0.000000 0.000000 0.000000 0.000000 0.000000 10.000000 
Rope4_Seg04 0.000000 0.000000 0.000000 0.000000 0.000000 0.000000 10.000000 
Rope4_Seg05 0.000000 0.000000 0.000000 0.000000 0.000000 0.000000 10.000000 
Rope4_Seg06 0.000000 0.000000 0.000000 0.000000 0.000000 0.000000 10.000000 
Rope4_Seg07 0.000000 0.000000 0.000000 0.000000 0.000000 0.000000 10.000000 
Rope4_Seg08 0.000000 0.000000 0.000000 0.000000 0.000000 0.000000 10.000000 
Rope4_Seg09 0.000000 0.000000 0.000000 0.000000 0.000000 0.000000 10.000000 
L_rear_hand01 0.000000 0.000000 0.000000 0.000000 0.000000 0.000000 10.000000 
L_rear_hand02 0.000000 0.000000 0.000000 0.000000 0.000000 0.000000 10.000000 
L_rear_hand03 0.000000 0.000000 0.000000 0.000000 0.000000 0.000000 10.000000 
#Beginning of Data. Separated by tabs
#Fr	Tx	Ty	Tz	Rx	Ry	Rz	SF
[MASTER]
10 -108.897514 3511.367920 0.000000 0.001660 0.001660 0.001660 3513.056152
11 -120.087852 3860.130371 0.000000 0.001660 0.001660 0.001660 3861.998047
[root]
10 -16.502287 -62.822014 1500.000000 -91.767502 -35.574497 -89.880173 1501.405640
11 -16.502287 -62.822006 1500.000000 -91.767502 -35.574497 -89.880173 1501.405640
[chest]
10 -84.512650 -34.090519 0.000000 15.241412 1.529337 146.108063 91.129311
11 -84.512650 -34.090519 0.000000 14.963662 1.182565 150.403839 91.129311
[L_mid_tent01]
10 27.299433 22.177523 -249.918274 30.784025 56.829567 104.756447 252.381149
11 27.299435 22.177525 -249.918274 36.532722 57.928905 111.136765 252.381149
[R_mid_tent01]
10 23.228794 24.509907 226.238495 168.429489 -29.426922 69.241997 228.744751
11 23.228794 24.509907 226.238495 167.802643 -29.191334 70.523712 228.744751
[spine01]
10 -0.361383 -0.195265 0.000000 0.001845 0.001451 13.654368 0.410763
11 -0.361383 -0.195265 0.000000 0.001845 0.001451 13.654368 0.410763
[Bip01_Neck]
10 165.484543 71.581718 0.000119 176.643677 -1.657967 43.431911 180.302734
11 165.484543 71.581718 0.000119 176.643677 -1.657967 43.431915 180.302734
[L_humerus]
10 -13.983130 -135.272980 -120.471481 153.819580 69.624519 -114.406334 181.680161
11 -13.983130 -135.272980 -120.471481 156.317398 70.210045 -112.010223 181.680161
[R_humerus]
10 -13.983309 -135.273102 125.287651 -166.277191 -66.211365 -98.897476 184.909012
11 -13.983309 -135.273102 125.287651 -172.382278 -66.903831 -92.553963 184.909012
[weapon_bone]
10 235.964890 -300.705902 0.000000 0.000000 -89.951546 -128.212341 382.234833
11 235.964890 -300.705902 0.000000 0.000000 -89.951546 -128.212341 382.234833
[Bip01_Head]
10 213.444290 185.715439 11.776979 7.453878 1.700919 -30.177504 283.173798
11 213.444290 185.715439 11.776980 7.585824 1.682852 -27.440142 283.173798
[eye_left_bone]
10 -24.626970 125.451866 -64.772606 0.000000 -90.000000 -99.840431 143.318359
11 -24.626970 125.451866 -64.772606 0.000000 -90.000000 -99.840431 143.318359
[eye_right_bone]
10 -24.626970 125.451866 64.327362 0.000000 -89.965736 80.156380 143.117676
11 -24.626970 125.451866 64.327362 0.000000 -89.965736 80.156380 143.117676
[L_forearm]
10 322.776093 0.000000 -0.000119 0.000281 -0.002330 -103.768929 322.776093
11 322.776093 0.000000 -0.000119 0.000292 -0.002329 -104.283470 322.776093
[L_front_hand]
10 241.149185 -0.042021 -3.300071 158.606613 -2.126610 -29.056639 241.171753
11 241.149185 -0.042021 -3.300071 155.552658 -2.000245 -28.225420 241.171753
[L_weapon_bone]
10 156.183838 0.000000 0.000000 0.000014 0.000007 0.000001 156.183838
11 156.183838 0.000000 0.000000 0.000014 0.000007 0.000001 156.183838
[L_front_hand01_01]
10 86.095154 20.947098 -0.655860 -0.351864 -0.488251 73.756912 88.609184
11 86.095154 20.947098 -0.655860 -0.340755 -0.496208 72.096481 88.609184
[L_front_hand02_01]
10 86.935165 -11.437475 24.513514 151.937775 -59.151119 -58.507736 91.046425
11 86.935165 -11.437475 24.513514 149.544266 -58.335350 -55.710854 91.046425
[L_front_hand03_01]
10 86.637497 -14.123976 -20.424902 -151.626480 57.374607 -59.999687 90.126129
11 86.637497 -14.123976 -20.424902 -149.397461 56.551064 -57.336918 90.126129
[L_front_hand01_02]
10 71.020905 -0.000179 0.000030 0.000317 -0.002326 -105.537247 71.020905
11 71.020905 -0.000179 0.000030 0.000317 -0.002326 -105.506187 71.020905
[L_front_hand02_02]
10 71.020927 -0.000119 0.000060 0.000317 -0.002326 -105.537247 71.020927
11 71.020927 -0.000119 0.000060 0.000317 -0.002326 -105.506187 71.020927
[L_front_hand03_02]
10 71.020905 -0.000060 0.000060 0.000317 -0.002326 -105.537247 71.020905
11 71.020905 -0.000060 0.000060 0.000317 -0.002326 -105.506187 71.020905
[R_forearm]
10 322.776428 -0.000060 0.000030 0.213293 0.003943 -91.500771 322.776428
11 322.776428 -0.000060 0.000030 0.209839 -0.001376 -90.530151 322.776428
[R_front_hand]
10 238.847015 -0.006795 2.210259 82.680733 -10.644061 -26.314798 238.857239
11 238.847015 -0.006795 2.210259 52.159306 -10.646203 -26.315584 238.857239
[R_weapon_bone]
10 155.664093 0.002503 -0.000030 0.003487 0.001180 -90.988930 155.664078
11 155.664093 0.002503 -0.000030 0.003487 0.001180 -90.988930 155.664078
[R_front_hand01_01]
10 87.624611 14.231146 22.918642 -152.176025 -59.222912 58.891888 91.683487
11 87.624611 14.231146 22.918642 -149.707169 -58.394505 56.007458 91.683487
[R_front_hand02_01]
10 89.356956 14.367283 -19.491137 152.293427 57.581059 61.021759 92.579636
11 89.356956 14.367283 -19.491137 149.983444 56.758789 58.275921 92.579636
[R_front_hand03_01]
10 87.286232 -22.307278 -0.143439 0.152228 -0.428396 -74.153709 90.091743
11 87.286232 -22.307278 -0.143439 0.134949 -0.432464 -72.452232 90.091743
[R_front_hand01_02]
10 71.020905 0.000060 0.000119 0.002323 -0.000334 106.381714 71.020905
11 71.020905 0.000060 0.000119 0.002323 -0.000334 106.381721 71.020905
[R_front_hand02_02]
10 71.020844 -0.000030 -0.000119 0.002323 -0.000334 106.381714 71.020836
11 71.020844 -0.000030 -0.000119 0.002323 -0.000334 106.381721 71.020836
[R_front_hand03_02]
10 71.020905 0.000000 0.000030 0.002323 -0.000334 106.381714 71.020905
11 71.020905 0.000000 0.000030 0.002323 -0.000334 106.381721 71.020905
[null_rope01_connect]
10 328.732483 0.000000 -0.000238 -124.093361 -26.481852 162.279282 328.732483
11 328.732483 0.000000 -0.000238 -124.700691 -23.691967 160.284073 328.732483
[Rope1_Seg01]
10 -0.000036 0.000033 0.000134 -91.670052 44.397449 -103.229721 0.000142
11 -0.000035 0.000033 0.000131 -71.249496 37.210686 -99.117760 0.000140
[Rope1_Seg02]
10 139.999863 -0.000179 0.000000 -28.969036 11.995375 3.354697 139.999863
11 139.999863 -0.000179 0.000000 -40.603951 15.141179 6.263103 139.999863
[Rope1_Seg03]
10 139.999924 0.000060 -0.000060 -27.228815 8.728623 9.440409 139.999924
11 139.999924 0.000060 -0.000060 -29.609905 9.367580 18.303978 139.999924
[Rope1_Seg04]
10 139.999924 -0.000060 -0.000119 -11.586258 2.426955 7.348508 139.999924
11 139.999924 -0.000060 -0.000119 -9.526430 -1.061704 14.966435 139.999924
[Rope1_Seg05]
10 139.999832 0.000119 -0.000060 0.640152 1.647513 -2.388256 139.999832
11 139.999832 0.000119 -0.000060 1.960079 -1.682570 -1.313340 139.999832
[Rope1_Seg06]
10 139.999954 0.000119 -0.000060 0.780187 1.291710 -2.027452 139.999954
11 139.999954 0.000119 -0.000060 2.851377 -1.694060 -2.653141 139.999954
[Rope1_Seg07]
10 139.999985 0.000060 0.000000 -0.606126 0.878997 -0.571773 139.999985
11 139.999985 0.000060 0.000000 1.215517 -1.653828 -0.139537 139.999985
[Rope1_Seg09]
10 121.602913 0.000119 -0.000089 -89.793175 -1.359789 0.847147 121.602913
11 121.602913 0.000119 -0.000089 -89.793175 -1.359789 0.847147 121.602913
[L_mid_hand01]
10 103.859421 1.038730 8.195221 118.511871 -58.710987 -25.432119 104.187431
11 103.859421 1.038730 8.195221 115.405022 -54.702576 -21.718946 104.187431
[L_mid_hand02]
10 105.572853 -4.139662 -10.864139 -159.626373 40.490181 -59.638344 106.211075
11 105.572853 -4.139662 -10.864139 -156.173538 38.796768 -54.226353 106.211075
[L_mid_hand03]
10 104.641464 17.579376 -3.913581 -9.285491 16.381809 63.801434 106.179977
11 104.641464 17.579376 -3.913581 -10.557028 15.605442 59.191399 106.179977
[null_rope02_connect]
10 328.732849 0.000179 -0.000119 -98.933823 59.712986 22.037617 328.732849
11 328.732849 0.000179 -0.000119 -98.935158 59.713734 23.176422 328.732849
[Rope2_Seg01]
10 0.000043 0.000134 0.000000 -127.407936 46.079803 -28.158646 0.000140
11 0.000043 0.000131 0.000000 -129.092651 42.925518 -30.500551 0.000138
[Rope2_Seg02]
10 139.999741 -0.000060 -0.000119 -10.229844 0.555306 6.788571 139.999756
11 139.999741 -0.000060 -0.000119 -9.229934 -2.880829 7.341343 139.999756
[Rope2_Seg03]
10 140.000107 0.000030 0.000000 -3.523965 0.605053 2.239525 140.000107
11 140.000107 0.000030 0.000000 -2.051857 -2.386044 2.612393 140.000107
[Rope2_Seg04]
10 139.999802 0.000000 -0.000060 -4.533494 -0.506886 3.665252 139.999802
11 139.999802 0.000000 -0.000060 -3.650185 -2.764752 4.411834 139.999802
[Rope2_Seg05]
10 139.999985 -0.000060 0.000119 -10.833349 -6.427135 13.721236 139.999985
11 139.999985 -0.000060 0.000119 -10.153100 -7.198911 15.127696 139.999985
[Rope2_Seg06]
10 139.999893 -0.000030 -0.000119 -5.542960 -8.038865 11.218417 139.999893
11 139.999893 -0.000030 -0.000119 -4.850471 -7.950945 11.616023 139.999893
[Rope2_Seg07]
10 139.999893 0.000060 -0.000060 -1.860179 -4.702103 5.629727 139.999893
11 139.999893 0.000060 -0.000060 -1.597319 -4.987060 6.089283 139.999893
[Rope2_Seg09]
10 121.338966 0.000089 -0.000060 33.793236 -1.359788 -0.847141 121.338966
11 121.338966 0.000089 -0.000060 33.793236 -1.359788 -0.847141 121.338966
[R_mid_hand01]
10 104.680779 11.144459 -10.335981 -20.898426 43.633060 63.773407 105.778534
11 104.680779 11.144459 -10.335981 -22.984863 42.734234 60.718655 105.778534
[R_mid_hand02]
10 104.070427 2.443552 8.231699 55.882156 -63.749565 31.819658 104.424065
11 104.070427 2.443552 8.231699 58.419525 -61.729706 28.969120 104.424065
[R_mid_hand03]
10 106.028137 -11.221827 -5.996406 -175.717163 15.237030 -71.372292 106.788818
11 106.028137 -11.221827 -5.996406 -175.069138 15.041784 -68.893349 106.788818
[spine02]
10 129.756927 0.001550 0.000119 -1.023899 -3.926965 6.770993 129.756927
11 129.756927 0.001550 0.000119 -1.023899 -3.926965 6.770993 129.756927
[spine03]
10 78.613846 0.087372 -4.898873 1.040681 4.146420 4.212376 78.766380
11 78.613846 0.087372 -4.898873 1.040681 4.146420 4.212376 78.766380
[pelvis]
10 169.435242 0.051022 0.000000 0.019518 -0.190233 -10.721436 169.435257
11 169.435242 0.051022 0.000000 0.019518 -0.190233 -10.721436 169.435257
[null_rope03_connect]
10 -1.257226 -2.466202 137.391083 -147.775742 -87.997871 -100.479507 137.418976
11 -1.257226 -2.466202 137.391083 -147.775742 -87.997871 -100.479507 137.418976
[null_rope04_connect]
10 -1.259640 -2.480268 -137.844437 -147.775742 -87.997871 -100.479507 137.872513
11 -1.259640 -2.480268 -137.844437 -147.775742 -87.997871 -100.479507 137.872513
[Rope3_Seg01]
10 -0.000027 -0.000029 -0.000019 -149.153748 -38.961956 -53.006775 0.000044
11 -0.000027 -0.000023 -0.000021 -149.619461 -39.150162 -52.452469 0.000042
[Rope3_Seg02]
10 139.999924 -0.000119 0.000060 -17.350985 5.590688 -25.407036 139.999924
11 139.999924 -0.000119 0.000060 -17.161503 5.695304 -24.808983 139.999924
[Rope3_Seg03]
10 139.999924 -0.000119 0.000119 -58.398045 19.627783 -41.442913 139.999924
11 139.999924 -0.000119 0.000119 -59.295822 20.423450 -42.212524 139.999924
[Rope3_Seg04]
10 139.999924 0.000119 0.000000 -24.298992 35.354435 -6.147790 139.999924
11 139.999924 0.000119 0.000000 -22.907295 33.487938 -5.759541 139.999924
[Rope3_Seg05]
10 139.999924 -0.000238 0.000060 -2.410755 10.671064 2.847264 139.999924
11 139.999924 -0.000238 0.000060 -2.355673 9.198981 2.159654 139.999924
[Rope3_Seg06]
10 139.999893 -0.000119 -0.000060 -0.299669 4.140675 1.247880 139.999893
11 139.999893 -0.000119 -0.000060 -0.370318 3.764551 1.028662 139.999893
[Rope3_Seg07]
10 139.999771 0.000060 -0.000119 0.159276 2.483588 0.766934 139.999771
11 139.999771 0.000060 -0.000119 0.098563 2.286205 0.641751 139.999771
[Rope3_Seg08]
10 139.999985 -0.000060 0.000000 0.355926 1.444487 0.441404 139.999985
11 139.999985 -0.000060 0.000000 0.317593 1.336009 0.371372 139.999985
[Rope3_Seg09]
10 90.185997 -0.000179 -0.000060 89.793228 -1.359877 -0.847183 90.185997
11 90.185997 -0.000179 -0.000060 89.793228 -1.359877 -0.847183 90.185997
[R_rear_hand01]
10 103.366196 -6.073594 -10.757982 -174.893967 24.166164 -67.090828 104.101845
11 103.366196 -6.073594 -10.757982 -173.599045 23.870514 -63.902164 104.101845
[R_rear_hand02]
10 100.509819 12.039542 -7.992327 -17.255272 35.248016 64.724976 101.543350
11 100.509819 12.039542 -7.992327 -19.192892 34.332623 61.336498 101.543350
[R_rear_hand03]
10 101.539970 5.215704 5.435467 75.989647 -65.836792 16.686356 101.819031
11 101.539970 5.215704 5.435467 77.403587 -62.983585 15.125125 101.819031
[Rope4_Seg01]
10 0.000000 0.000000 0.000000 71.912773 -32.750771 -144.408035 0.000000
11 0.000000 0.000000 0.000000 71.026917 -32.109882 -143.972672 0.000000
[Rope4_Seg02]
10 139.999985 0.000060 0.000119 8.861313 -14.954409 -0.813439 139.999985
11 139.999985 0.000060 0.000119 8.579702 -15.140870 -1.190719 139.999985
[Rope4_Seg03]
10 139.999924 0.000000 -0.000238 46.348946 -25.229725 2.704416 139.999924
11 139.999924 0.000000 -0.000238 45.828056 -25.086378 1.894604 139.999924
[Rope4_Seg04]
10 139.999985 0.000000 0.000119 61.625561 -17.827801 27.164366 139.999985
11 139.999985 0.000000 0.000119 64.545082 -18.602497 25.701197 139.999985
[Rope4_Seg05]
10 139.999802 -0.000060 -0.000119 10.099779 7.997836 14.178399 139.999802
11 139.999802 -0.000060 -0.000119 10.383941 8.186169 14.104872 139.999802
[Rope4_Seg06]
10 139.999924 0.000000 0.000060 3.121680 1.924679 5.033589 139.999924
11 139.999924 0.000000 0.000060 2.954461 2.191631 4.750420 139.999924
[Rope4_Seg07]
10 139.999802 0.000000 0.000000 3.134167 -2.313437 3.204846 139.999802
11 139.999802 0.000000 0.000000 2.794548 -2.071507 2.623271 139.999802
[Rope4_Seg08]
10 139.999924 0.000000 0.000119 1.567553 -0.943405 3.961442 139.999924
11 139.999924 0.000000 0.000119 1.600618 -1.677949 3.337512 139.999924
[Rope4_Seg09]
10 90.185791 0.000060 0.000060 -135.617828 2.228885 0.850567 90.185791
11 90.185791 0.000060 0.000060 -135.617828 2.228885 0.850567 90.185791
[L_rear_hand01]
10 101.696655 -8.392275 -7.654577 -25.776871 -29.993465 130.987762 102.329041
11 101.696655 -8.392275 -7.654577 -28.953402 -26.963970 137.645660 102.329041
[L_rear_hand02]
10 102.726799 -1.568258 5.773216 80.757904 51.892082 168.841858 102.900848
11 102.726799 -1.568258 5.773216 81.888351 45.378387 170.342453 102.900848
[L_rear_hand03]
10 104.552910 9.721220 -10.420293 -168.841812 -22.136347 -128.226929 105.519653
11 104.552910 9.721220 -10.420293 -166.314163 -20.719036 -135.138702 105.519653
